<svg width="296" height="341" viewBox="0 0 296 341" fill="none" xmlns="http://www.w3.org/2000/svg">
<path d="M289.096 231.468C279.228 241.336 263.227 241.336 253.359 231.468L209.792 187.899C199.922 178.031 199.922 162.032 209.792 152.162L253.359 108.595C263.227 98.7267 279.228 98.7267 289.096 108.595L332.665 152.162C342.533 162.032 342.533 178.031 332.665 187.899L289.096 231.468ZM86.7068 231.468C76.8389 241.336 60.8375 241.336 50.9678 231.468L7.40231 187.899C-2.46744 178.031 -2.46744 162.032 7.40231 152.162L50.9696 108.595C60.8375 98.7267 76.8389 98.7267 86.7068 108.595L130.274 152.162C140.144 162.032 140.144 178.031 130.274 187.899L86.7068 231.468ZM187.902 332.662C178.033 342.532 162.033 342.532 152.163 332.662L108.596 289.095C98.7281 279.227 98.7281 263.225 108.596 253.357L152.165 209.79C162.033 199.92 178.033 199.92 187.902 209.79L231.47 253.357C241.338 263.225 241.338 279.227 231.47 289.095L187.902 332.662ZM187.902 130.273C178.033 140.142 162.033 140.142 152.163 130.273L108.596 86.7054C98.7281 76.8357 98.7281 60.8362 108.596 50.9664L152.165 7.40095C162.033 -2.46698 178.033 -2.46698 187.902 7.40095L231.47 50.97C241.338 60.838 241.338 76.8375 231.47 86.7072L187.902 130.273Z" fill="url(#paint0_linear_1189_5211)"/>
<defs>
<linearGradient id="paint0_linear_1189_5211" x1="0" y1="0" x2="340.066" y2="0" gradientUnits="userSpaceOnUse">
<stop stop-color="#69EACB"/>
<stop offset="0.48" stop-color="#EACCF8"/>
<stop offset="1" stop-color="#6654F1"/>
</linearGradient>
</defs>
</svg>
