<svg width="1728" height="1174" viewBox="0 0 1728 1174" fill="none" xmlns="http://www.w3.org/2000/svg">
<path d="M0 0H1728V1046.22L1679.26 1073.12C1648.62 1090.03 1616.5 1104.12 1583.31 1115.22L1520.4 1136.27L1406.4 1159.42L1372.9 1164.27C1328.23 1170.73 1282.9 1171.21 1238.1 1165.72L1186.8 1159.42L1107.58 1145.77C1070.85 1139.45 1034.65 1130.33 999.294 1118.5L939.6 1098.53L830.4 1059.09C776.941 1042.55 721.927 1031.54 666.221 1026.23L624 1022.21H514.8H493.072C438.943 1022.21 385.001 1028.55 332.346 1041.09L310.8 1046.22L187.2 1075.38L185.896 1075.89C125.336 1099.5 67.4509 1129.46 13.2115 1165.28L0 1174V0Z" fill="#f6f6f6"/>
</svg>
