<svg width="32" height="55" viewBox="0 0 32 55" fill="none" xmlns="http://www.w3.org/2000/svg">
<path d="M8.39045 7.62431C9.36659 2.60253 14.346 -0.654914 19.5111 0.349084C24.6768 1.35319 28.0727 6.23877 27.0966 11.2604C26.1204 16.2826 21.1417 19.5397 15.976 18.5356C10.8107 17.5316 7.41424 12.6465 8.39045 7.62431ZM15.8837 31.494C16.7379 27.0994 21.0944 24.2494 25.6146 25.128C30.1348 26.0067 33.1063 30.2811 32.2521 34.6758C31.3979 39.0699 27.0415 41.9204 22.5213 41.0417C18.0011 40.1631 15.0296 35.8881 15.8837 31.494ZM35.5664 17.6256C37.0307 10.0924 44.4993 5.2063 52.2479 6.71247C59.9957 8.2185 65.0903 15.5466 63.6259 23.08C62.1616 30.6132 54.693 35.4987 46.9451 33.9927C39.1965 32.4865 34.1019 25.1589 35.5662 17.6257L35.5664 17.6256ZM34.4977 48.0876C35.718 41.8099 41.942 37.7381 48.3991 38.9932C54.8562 40.2483 59.1017 46.3552 57.8814 52.6329C56.6611 58.9107 50.4372 62.9825 43.98 61.7273C37.5229 60.4722 33.2775 54.3654 34.4977 48.0876ZM0.878204 46.2715C1.61036 42.5049 5.3449 40.0623 9.21926 40.8154C13.0935 41.5685 15.6405 45.2321 14.9084 48.9988C14.1761 52.7654 10.4422 55.2082 6.56768 54.4551C2.69346 53.702 0.145887 50.0382 0.878066 46.2715L0.878204 46.2715ZM7.63592 23.9932C7.87998 22.7376 9.12458 21.9233 10.416 22.1743C11.7075 22.4253 12.5566 23.6465 12.3125 24.9022C12.0685 26.1572 10.8238 26.9714 9.53236 26.7204C8.2409 26.4694 7.39197 25.2482 7.63592 23.9932ZM20.9747 48.9981C21.3409 47.1145 23.2077 45.8931 25.1452 46.2697C27.0821 46.6462 28.3556 48.478 27.9895 50.3617C27.6235 52.2446 25.7566 53.4661 23.8195 53.0896C21.8822 52.713 20.6087 50.8812 20.9747 48.9981Z" fill="url(#paint0_linear_1189_6031)"/>
<defs>
<linearGradient id="paint0_linear_1189_6031" x1="55.6719" y1="64" x2="-0.447617" y2="53.0915" gradientUnits="userSpaceOnUse">
<stop stop-color="#69EACB"/>
<stop offset="0.48" stop-color="#EACCF8"/>
<stop offset="1" stop-color="#6654F1"/>
</linearGradient>
</defs>
</svg>
