<svg width="327" height="310" viewBox="0 0 327 310" fill="none" xmlns="http://www.w3.org/2000/svg">
<path d="M283.398 101.508C276.3 100.798 267.072 85.8912 274.88 73.8239C279.849 66.0156 284.818 58.9171 277.01 46.1399C271.331 36.2021 264.942 37.6218 257.844 39.7513C246.486 43.3005 242.227 26.9741 242.227 13.4871C242.227 6.3886 238.678 0 225.901 0C218.802 0 215.253 5.67876 211.704 12.0674C206.025 21.2953 186.15 24.1347 182.6 14.1969C179.051 4.25907 161.305 3.54922 149.238 11.3575C137.88 19.1658 124.393 16.3264 123.683 14.1969C122.264 12.7772 121.554 11.3575 120.844 11.3575C120.134 11.3575 117.295 4.96891 110.196 2.83938C106.647 1.41969 102.388 2.12953 96.7092 4.25907C75.4138 12.7772 84.6418 32.6529 77.5434 47.5596C67.6056 66.7254 56.9579 45.4301 38.5019 50.399C25.0149 53.9482 15.0771 70.2746 15.0771 87.3109C15.7869 102.928 36.3724 120.674 34.2429 132.031C32.1133 141.259 10.1082 127.772 1.59005 154.746C-1.24933 163.264 0.170362 171.073 2.29989 181.01C6.55896 201.596 17.2066 193.078 25.7248 201.596C35.6626 212.244 37.0823 223.601 27.1444 236.378C7.2688 264.062 30.6937 283.938 57.6677 279.679C72.5745 277.549 96.7092 271.871 92.4501 282.518C90.3206 289.617 84.6418 296.715 88.191 301.684C107.357 322.979 122.264 287.487 141.429 288.907H143.559C144.269 288.907 146.398 290.327 148.528 291.746C149.947 293.166 152.077 293.876 152.787 294.586C153.497 295.295 155.626 302.394 162.015 305.943C165.564 308.073 169.823 309.492 174.792 309.492C184.73 309.492 199.637 305.233 206.025 295.296C208.155 292.456 208.155 287.487 208.155 283.228C208.865 276.13 223.061 281.808 237.968 283.938C258.554 286.777 277.719 274 268.491 244.187C267.782 242.057 267.072 240.637 265.652 239.218C263.523 236.378 262.813 232.119 265.652 229.28C267.072 227.86 269.201 227.15 272.041 227.86C299.725 233.539 319.6 224.311 311.082 199.466C306.823 186.689 279.139 181.01 300.434 173.912C308.243 171.073 316.761 168.233 321.73 157.586C333.797 133.451 325.279 96.5389 294.756 100.798C292.626 101.508 288.367 102.218 283.398 101.508Z" fill="url(#paint0_linear_1189_5350)"/>
<defs>
<linearGradient id="paint0_linear_1189_5350" x1="0" y1="0" x2="327" y2="0" gradientUnits="userSpaceOnUse">
<stop stop-color="#69EACB"/>
<stop offset="0.48" stop-color="#EACCF8"/>
<stop offset="1" stop-color="#6654F1"/>
</linearGradient>
</defs>
</svg>
