<svg width="341" height="340" viewBox="0 0 341 340" fill="none" xmlns="http://www.w3.org/2000/svg">
<path d="M289.096 230.468C279.228 240.336 263.227 240.336 253.359 230.468L209.792 186.899C199.922 177.031 199.922 161.032 209.792 151.162L253.359 107.595C263.227 97.7267 279.228 97.7267 289.096 107.595L332.665 151.162C342.533 161.032 342.533 177.031 332.665 186.899L289.096 230.468ZM86.7068 230.468C76.8389 240.336 60.8375 240.336 50.9678 230.468L7.40231 186.899C-2.46744 177.031 -2.46744 161.032 7.40231 151.162L50.9696 107.595C60.8375 97.7267 76.8389 97.7267 86.7068 107.595L130.274 151.162C140.144 161.032 140.144 177.031 130.274 186.899L86.7068 230.468ZM187.902 331.662C178.033 341.532 162.033 341.532 152.163 331.662L108.596 288.095C98.7281 278.227 98.7281 262.225 108.596 252.357L152.165 208.79C162.033 198.92 178.033 198.92 187.902 208.79L231.47 252.357C241.338 262.225 241.338 278.227 231.47 288.095L187.902 331.662ZM187.902 129.273C178.033 139.142 162.033 139.142 152.163 129.273L108.596 85.7054C98.7281 75.8357 98.7281 59.8362 108.596 49.9664L152.165 6.40095C162.033 -3.46698 178.033 -3.46698 187.902 6.40095L231.47 49.97C241.338 59.838 241.338 75.8375 231.47 85.7072L187.902 129.273Z" fill="url(#paint0_linear_1189_5058)" fill-opacity="0.3"/>
<defs>
<linearGradient id="paint0_linear_1189_5058" x1="0" y1="-1" x2="340.066" y2="-1" gradientUnits="userSpaceOnUse">
<stop stop-color="#69EACB"/>
<stop offset="0.48" stop-color="#EACCF8"/>
<stop offset="1" stop-color="#6654F1"/>
</linearGradient>
</defs>
</svg>
